<svg id="Dollar" xmlns="http://www.w3.org/2000/svg" width="24" height="24" viewBox="0 0 24 24">
  <g id="Dollar_Circle" data-name="Dollar Circle">
    <path id="Vector" d="M20,10A10,10,0,1,1,10,0,10,10,0,0,1,20,10Z" transform="translate(2 2)" fill="none" stroke="#6c757d" stroke-width="1.5"/>
    <path id="Vector-2" data-name="Vector" d="M10,17v-.951M10,3v.951m0,0a2.957,2.957,0,0,1,2.712,1.475l.376.65M10,16.049a2.957,2.957,0,0,1-2.711-1.475l-.376-.651M10,16.049V10m0,0-.87-.32A2.958,2.958,0,0,1,10,3.951M10,10l.87.32A2.958,2.958,0,0,1,10,16.049m0-12.1V10" transform="translate(2 2)" fill="none" stroke="#6c757d" stroke-width="1.5"/>
  </g>
</svg>
