<svg id="OrderIcon" xmlns="http://www.w3.org/2000/svg" width="24" height="24" viewBox="0 0 24 24">
  <g id="Ticket_1" data-name="Ticket 1">
    <path id="Vector" d="M12,0V1.817a.75.75,0,0,0,1.5,0V0h2.806A5.194,5.194,0,0,1,21.5,5.194a2.163,2.163,0,0,1-1.227,1.95l-.487.234a1.522,1.522,0,0,0,0,2.744l.487.234a2.163,2.163,0,0,1,1.227,1.95A5.194,5.194,0,0,1,16.306,17.5H13.5V15.683a.75.75,0,1,0-1.5,0V17.5H5.194A5.194,5.194,0,0,1,0,12.306a2.163,2.163,0,0,1,1.227-1.95l.487-.234a1.522,1.522,0,0,0,0-2.744l-.487-.234A2.163,2.163,0,0,1,0,5.194,5.194,5.194,0,0,1,5.194,0Zm0,5.017V7.15a.75.75,0,0,0,1.5,0V5.017a.75.75,0,0,0-1.5,0Zm1.5,5.333a.75.75,0,1,0-1.5,0v2.133a.75.75,0,1,0,1.5,0Z" transform="translate(1.25 3.25)" fill="#fff" fill-rule="evenodd"/>
  </g>
</svg>
