<svg xmlns="http://www.w3.org/2000/svg" width="21.5" height="21.5" viewBox="0 0 21.5 21.5">
  <g id="Percent" transform="translate(0.75 0.75)">
    <g id="Discount_Circle" data-name="Discount Circle" transform="translate(-2 -2)">
      <path id="Vector" d="M20,10A10,10,0,1,1,10,0,10,10,0,0,1,20,10Z" transform="translate(2 2)" fill="none" stroke="#6c757d" stroke-width="1.5"/>
      <path id="Vector-2" data-name="Vector" d="M7,13l5.657-5.657" transform="translate(2 2)" fill="none" stroke="#6c757d" stroke-width="1.5"/>
      <path id="Vector-3" data-name="Vector" d="M1,0A1,1,0,1,1,0,1,1,1,0,0,1,1,0Z" transform="translate(8 8)" fill="#6c757d"/>
      <path id="Vector-4" data-name="Vector" d="M7,6A1,1,0,1,1,6,7,1,1,0,0,1,7,6Z" transform="translate(8 8)" fill="#6c757d"/>
    </g>
  </g>
</svg>
