<svg id="Phone" xmlns="http://www.w3.org/2000/svg" width="24" height="24" viewBox="0 0 24 24">
  <g id="Call">
    <path id="Vector" d="M1.761.662C1.831.591,1.867.556,1.9.527A2,2,0,0,1,4.6.527c.031.029.066.064.137.135L6.2,2.12a2.759,2.759,0,0,1,.578,3.053,2.759,2.759,0,0,0,.578,3.053l2.4,2.4a2.759,2.759,0,0,0,3.053.578,2.759,2.759,0,0,1,3.053.578l1.458,1.458c.071.071.106.106.135.137a2,2,0,0,1,0,2.706c-.029.031-.064.066-.135.137l-.886.886a2.986,2.986,0,0,1-2.759.8,17.913,17.913,0,0,1-13.6-13.6,2.986,2.986,0,0,1,.8-2.759Z" transform="translate(3 3)" fill="none" stroke="#6c757d" stroke-width="1.5"/>
  </g>
</svg>
