<svg id="ResetIcon" xmlns="http://www.w3.org/2000/svg" width="24" height="24" viewBox="0 0 24 24">
  <g id="Rotate_Right" data-name="Rotate Right">
    <path id="Vector" d="M20.166,2.776a18.153,18.153,0,0,1-.049,1.891A2.755,2.755,0,0,1,19.6,6.112a2.732,2.732,0,0,1-.489.489,2.755,2.755,0,0,1-1.445.517,18.152,18.152,0,0,1-1.891.049l-2.029-.009a.75.75,0,1,1,.007-1.5l1.986.009a17.542,17.542,0,0,0,1.764-.04c.058-.006.111-.013.16-.021A9.308,9.308,0,0,0,16.3,4.35a9.25,9.25,0,1,0,3.7,7.4.75.75,0,1,1,1.5,0,10.756,10.756,0,1,1-2.868-7.31c.038-.4.037-.933.034-1.7L18.657.753a.75.75,0,0,1,1.5-.007Z" transform="translate(1.25 0.25)" fill="#fff"/>
  </g>
</svg>
